<svg width="30" height="30" viewBox="0 0 30 30" fill="none" xmlns="http://www.w3.org/2000/svg">
<path fill-rule="evenodd" clip-rule="evenodd" d="M6.50793 3.58219V5.35793L4.39051 5.52884C2.89341 5.64969 1.6722 6.77691 1.43209 8.25956C1.37991 8.58179 1.33246 8.90458 1.28973 9.22785C1.26852 9.38826 1.35407 9.54353 1.50031 9.61277L1.59663 9.65838C8.38252 12.8715 16.5083 12.8715 23.2942 9.65838L23.3905 9.61278C23.5368 9.54354 23.6223 9.38827 23.6011 9.22786C23.5584 8.90459 23.5109 8.58179 23.4587 8.25956C23.2186 6.77691 21.9974 5.64969 20.5003 5.52884L18.3829 5.35793V3.58219C18.3829 2.49938 17.5907 1.57951 16.5199 1.41889L14.995 1.19016C13.3047 0.936614 11.5861 0.936615 9.89582 1.19016L8.37093 1.41889C7.30011 1.57951 6.50793 2.49938 6.50793 3.58219ZM14.7169 3.04441C13.211 2.81853 11.6798 2.81853 10.174 3.04441L8.64907 3.27315C8.49609 3.29609 8.38293 3.4275 8.38293 3.58219V5.22596C11.089 5.07093 13.8018 5.07093 16.5079 5.22596V3.58219C16.5079 3.4275 16.3948 3.29609 16.2418 3.27315L14.7169 3.04441Z" fill="#759892"/>
<path d="M23.8433 11.8443C23.834 11.6691 23.6506 11.5597 23.4903 11.6307C16.5266 14.714 8.36423 14.714 1.40058 11.6307C1.2402 11.5597 1.05685 11.6691 1.04752 11.8443C0.920308 14.2336 1.0485 16.6331 1.43209 19.0018C1.6722 20.4845 2.89341 21.6117 4.39051 21.7325L6.73041 21.9214C10.5342 22.2285 14.3566 22.2285 18.1604 21.9214L20.5003 21.7325C21.9974 21.6117 23.2186 20.4845 23.4587 19.0018C23.8423 16.6331 23.9705 14.2336 23.8433 11.8443Z" fill="#759892"/>
</svg>
