<svg width="30" height="30" viewBox="0 0 30 30" fill="none" xmlns="http://www.w3.org/2000/svg">
<path d="M9.11148 6.13452C13.0298 5.79391 16.9702 5.79391 20.8885 6.13452L22.7763 6.29862C24.033 6.40786 25.1094 7.15745 25.6671 8.22967C25.7384 8.36684 25.6849 8.53292 25.5535 8.6143L17.721 13.463C16.0412 14.5029 13.923 14.5247 12.2221 13.5196L4.33736 8.86041C4.20998 8.78513 4.1515 8.63018 4.20891 8.49381C4.71911 7.28185 5.86615 6.41663 7.22369 6.29862L9.11148 6.13452Z" fill="#759892"/>
<path d="M4.2025 10.9586C4.00754 10.8434 3.75879 10.9674 3.73606 11.1927C3.41889 14.3372 3.49566 17.5115 3.96635 20.6417C4.2145 22.2918 5.56126 23.5569 7.22369 23.7014L9.11148 23.8655C13.0298 24.2061 16.9702 24.2061 20.8885 23.8655L22.7763 23.7014C24.4388 23.5569 25.7855 22.2918 26.0337 20.6417C26.5181 17.4203 26.5853 14.1522 26.2352 10.9178C26.2107 10.6909 25.9577 10.5693 25.7636 10.6894L18.7079 15.0572C16.4352 16.4641 13.5695 16.4936 11.2683 15.1338L4.2025 10.9586Z" fill="#759892"/>
</svg>
