<svg width="30" height="30" viewBox="0 0 30 30" fill="none" xmlns="http://www.w3.org/2000/svg">
<path d="M23.6937 3.88215C24.0598 3.51603 24.0598 2.92244 23.6937 2.55633C23.3276 2.19021 22.734 2.19021 22.3679 2.55633L21.484 3.44021C20.8647 4.0595 20.8963 5.02183 21.4366 5.62473C25.0648 9.67317 24.9332 15.9009 21.042 19.7921C19.0295 21.8046 16.3919 22.8114 13.754 22.8125L13.75 22.8125L13.7462 22.8125C11.2865 22.8117 8.82718 21.9364 6.87472 20.1867C6.27182 19.6464 5.30949 19.6147 4.69019 20.234L3.80631 21.1179C3.44019 21.484 3.44019 22.0776 3.80631 22.4437C4.17243 22.8098 4.76602 22.8098 5.13214 22.4437L5.82019 21.7556C7.84493 23.4939 10.3047 24.4592 12.8125 24.6516V26.5625H10.625C10.1072 26.5625 9.6875 26.9822 9.6875 27.5C9.6875 28.0178 10.1072 28.4375 10.625 28.4375H16.875C17.3928 28.4375 17.8125 28.0178 17.8125 27.5C17.8125 26.9822 17.3928 26.5625 16.875 26.5625H14.6875V24.6516C17.4871 24.437 20.2267 23.2591 22.3679 21.1179C26.9044 16.5814 27.1169 9.35906 23.0056 4.57021L23.6937 3.88215Z" fill="#759892"/>
<path fill-rule="evenodd" clip-rule="evenodd" d="M5.625 12.5C5.625 8.0127 9.26269 4.37502 13.75 4.37502C18.2373 4.37502 21.875 8.0127 21.875 12.5C21.875 16.9873 18.2373 20.625 13.75 20.625C9.26269 20.625 5.625 16.9873 5.625 12.5ZM16.25 7.81252C14.3515 7.81252 12.8125 9.35154 12.8125 11.25C12.8125 13.1485 14.3515 14.6875 16.25 14.6875C18.1485 14.6875 19.6875 13.1485 19.6875 11.25C19.6875 9.35154 18.1485 7.81252 16.25 7.81252ZM7.8125 15.625C7.8125 14.7621 8.51205 14.0625 9.375 14.0625C10.2379 14.0625 10.9375 14.7621 10.9375 15.625C10.9375 16.488 10.2379 17.1875 9.375 17.1875C8.51205 17.1875 7.8125 16.488 7.8125 15.625Z" fill="#759892"/>
</svg>
