<svg width="30" height="30" viewBox="0 0 30 30" fill="none" xmlns="http://www.w3.org/2000/svg">
<path d="M17.245 5.17014C16.017 3.90187 13.9829 3.90186 12.7549 5.17013L6.75682 11.3648C6.41234 11.7206 6.18086 12.1703 6.09154 12.6574C5.36309 16.6299 5.30932 20.6967 5.93249 24.687L6.15311 26.0998C6.2228 26.546 6.60713 26.875 7.05876 26.875H11.25C11.5951 26.875 11.875 26.5952 11.875 26.25V17.5H18.125V26.25C18.125 26.5952 18.4048 26.875 18.75 26.875H22.9411C23.3927 26.875 23.7771 26.546 23.8468 26.0998L24.0674 24.687C24.6905 20.6967 24.6368 16.6299 23.9083 12.6574C23.819 12.1703 23.5875 11.7206 23.2431 11.3648L17.245 5.17014Z" fill="#759892"/>
</svg>
