<svg width="30" height="30" viewBox="0 0 30 30" fill="none" xmlns="http://www.w3.org/2000/svg">
<path fill-rule="evenodd" clip-rule="evenodd" d="M7.26745 21.292C7.00449 18.351 7.02744 15.3915 7.33598 12.455L7.4158 11.6953C7.56814 10.2454 8.66791 9.07845 10.0993 8.83572L7.92209 4.73777C7.77455 4.46006 7.77607 4.12687 7.92614 3.85052C8.07622 3.57416 8.35485 3.39146 8.66812 3.36399L9.02293 3.33289C13 2.98421 17 2.98421 20.9771 3.33289L21.3319 3.36399C21.6452 3.39146 21.9238 3.57416 22.0739 3.85052C22.2239 4.12687 22.2255 4.46006 22.0779 4.73777L19.9007 8.83572C21.3321 9.07844 22.4319 10.2454 22.5842 11.6953L22.664 12.455C22.9726 15.3915 22.9955 18.351 22.7326 21.292L22.5558 23.2693C22.4226 24.7591 21.2844 25.9629 19.8043 26.1793C16.6184 26.6451 13.3816 26.6451 10.1957 26.1793C8.71564 25.9629 7.57745 24.7591 7.44423 23.2693L7.26745 21.292ZM17.9583 8.60449C17.974 8.50421 18.0065 8.40479 18.0568 8.31011L19.7536 5.11634C16.5886 4.88973 13.4114 4.88973 10.2464 5.11634L11.9432 8.31011C11.9935 8.40479 12.026 8.50421 12.0417 8.60449C14.01 8.4293 15.99 8.4293 17.9583 8.60449Z" fill="#759892"/>
</svg>
